# AST/ASF file generated using VICON BodyLanguage
# -----------------------------------------------
:version 1.10
:name VICON
:units
  mass 1.0
  length 0.45
  angle deg
:documentation
   .ast/.asf automatically generated from VICON data using
   VICON BodyBuilder and BodyLanguage model FoxedUp or BRILLIANT.MOD
:root
   order TX TY TZ RX RY RZ
   axis XYZ
   position 0 0 0  
   orientation 0 0 0 
:bonedata
  begin
     id 1 
     name lhipjoint
     direction 0.606768 -0.715223 0.346827 
     length 2.41543 
     axis 0 0 0  XYZ
  end
  begin
     id 2 
     name lfemur
     direction 0.34202 -0.939693 0  
     length 7.2778  
     axis 0 0 20  XYZ
    dof rx ry rz
    limits (-160.0 20.0)
           (-70.0 70.0)
           (-60.0 70.0)
  end
  begin
     id 3 
     name ltibia
     direction 0.34202 -0.939693 0   
     length 7.61811   
     axis 0 0 20   XYZ
    dof rx
    limits (-10.0 170.0)
  end
  begin
     id 4 
     name lfoot
     direction 0.0823924 -0.226371 0.97055   
     length 2.33618   
     axis -90 7.62852e-016 20   XYZ
    dof rx rz
    limits (-45.0 90.0)
           (-70.0 20.0)
  end
  begin
     id 5 
     name ltoes
     direction 1.53554e-011 -4.21934e-011 1   
     length 1.17015   
     axis -90 7.62852e-016 20   XYZ
    dof rx
    limits (-90.0 20.0)
  end
  begin
     id 6 
     name rhipjoint
     direction -0.6077 -0.714582 0.346516   
     length 2.4176  
     axis 0 0 0  XYZ 
  end
  begin
     id 7 
     name rfemur
     direction -0.34202 -0.939693 0   
     length 7.28127   
     axis 0 0 -20   XYZ
    dof rx ry rz
    limits (-160.0 20.0)
           (-70.0 70.0)
           (-70.0 60.0)
  end
  begin
     id 8 
     name rtibia
     direction -0.34202 -0.939693 0   
     length 7.77648   
     axis 0 0 -20   XYZ
    dof rx
    limits (-10.0 170.0)
 end
 begin
     id 9 
     name rfoot
     direction -0.0809463 -0.222398 0.97159   
     length 2.37533  
     axis -90 -7.62852e-016 -20   XYZ
    dof rx rz
    limits (-45.0 90.0)
           (-20.0 70.0)
  end
  begin
     id 10 
     name rtoes
     direction -1.53568e-011 -4.21714e-011 1   
     length 1.18972   
     axis -90 -7.62852e-016 -20   XYZ
    dof rx
    limits (-90.0 20.0)
  end
  begin
     id 11 
     name lowerback
     direction 0.010968 0.991932 -0.126297   
     length 2.21698   
     axis 0 0 0   XYZ
    dof rx ry rz
    limits (-20.0 45.0)
           (-30.0 30.0)
           (-30.0 30.0)
  end
  begin
     id 12 
     name upperback
     direction 0.0167007 0.997503 -0.0686276   
     length 2.22371   
     axis 0 0 0   XYZ
    dof rx ry rz
    limits (-20.0 45.0)
           (-30.0 30.0)
           (-30.0 30.0)
  end
  begin
     id 13 
     name thorax
     direction 0.0111721 0.999885 -0.0102878   
     length 2.25242   
     axis 0 0 0   XYZ
    dof rx ry rz
    limits (-20.0 45.0)
           (-30.0 30.0)
           (-30.0 30.0)
  end
  begin
     id 14 
     name lowerneck
     direction -0.0120265 0.990428 0.137508   
     length 1.57674   
     axis 0 0 0   XYZ
    dof rx ry rz
    limits (-20.0 45.0)
           (-30.0 30.0)
           (-30.0 30.0)
  end
  begin
     id 15 
     name upperneck
     direction 0.0175669 0.998907 0.0433089   
     length 1.5618   
     axis 0 0 0   XYZ
    dof rx ry rz
    limits (-20.0 45.0)
           (-30.0 30.0)
           (-30.0 30.0)
  end
  begin
     id 16
     name head
     direction 0.00754609 0.99997 0.00185367  
     length 1.60579  
     axis 0 0 0   XYZ
    dof rx ry rz
    limits (-20.0 45.0)
           (-30.0 30.0)
           (-30.0 30.0)
  end
  begin
     id 17 
     name lclavicle
     direction 0.885866 0.429166 -0.176231  
     length 3.44967  
     axis 0 0 0   XYZ
    dof ry rz
    limits (-20.0 10.0)
           (0.0 20.0)
  end
  begin
     id 18 
     name lhumerus
     direction 1 -4.48973e-011 -1.90255e-027   
     length 5.20607   
     axis 180 -30 -90   XYZ
    dof rx ry rz
    limits (-60.0 90.0)
           (-90.0 90.0)
           (-90.0 90.0)
  end
  begin
     id 19
     name lradius
     direction 1 -4.48956e-011 9.87925e-027   
     length 3.39961   
     axis 180 -30 -90   XYZ
    dof rx
    limits (-10.0 170.0)
  end
  begin
     id 20
     name lwrist
     direction 1 -4.48985e-011 1.73247e-026   
     length 1.6998   
     axis -9.60847e-015 90 90   XYZ
    dof ry
    limits (-180.0 0.0)
 end
  begin
     id 21 
     name lhand
     direction 1 -4.48798e-011 3.46119e-026   
     length 0.519693   
     axis -2.21073e-014 90 90   XYZ
    dof rx rz
    limits (-90.0 90.0)
           (-45.0 45.0)
  end
  begin
     id 22 
     name lfingers
     direction 1 -4.48938e-011 6.92797e-026   
     length 0.41899   
     axis -4.42155e-014 90 90   XYZ
    dof rx
    limits (0.0 90.0)
  end
  begin
     id 23
     name lthumb
     direction 0.707107 -6.34952e-011 0.707107   
     length 0.601588   
     axis -90 45 6.0103e-014   XYZ
    dof rx rz
    limits (-45.0 45.0)
           (-45.0 45.0)
  end
  begin
     id 24 
     name rclavicle
     direction -0.866736 0.456792 -0.200276   
     length 3.45032  
     axis 0 0 0   XYZ 
    dof ry rz
    limits (-10.0 20.0)
           (-20.0 0.0)
  end
  begin
     id 25 
     name rhumerus
     direction -1 -4.4897e-011 8.65094e-028  
     length 5.32214   
     axis 180 30 90   XYZ
    dof rx ry rz
    limits (-90.0 60.0)
           (-90.0 90.0)
           (-90.0 90.0)
  end
  begin
     id 26 
     name rradius
     direction -1 -4.48987e-011 1.08427e-026   
     length 3.51208   
     axis 180 30 90   XYZ
    dof rx
    limits (-10.0 170.0)
  end
  begin
     id 27 
     name rwrist
     direction -1 -4.48961e-011 1.73222e-026   
     length 1.75604   
     axis -9.60847e-015 -90 -90   XYZ
    dof ry
    limits (-180.0 0.0)
  end
  begin
     id 28
     name rhand
     direction -1 -4.48895e-011 3.46314e-026   
     length 0.586681   
     axis -2.21073e-014 -90 -90   XYZ
    dof rx rz
    limits (-90.0 90.0)
           (-45.0 45.0)
  end
  begin
     id 29
     name rfingers
     direction -1 -4.48968e-011 6.92916e-026   
     length 0.472997   
     axis -4.42155e-014 -90 -90   XYZ
    dof rx
    limits (0.0 90.0)
  end
  begin
     id 30
     name rthumb
     direction -0.707107 -6.34848e-011 0.707107   
     length 0.679133   
     axis -90 -45 -6.0103e-014   XYZ
    dof rx rz
    limits (-45.0 45.0)
           (-45.0 45.0)
  end
:hierarchy
  begin
    root lhipjoint rhipjoint lowerback
    lhipjoint lfemur
    lfemur ltibia
    ltibia lfoot
    lfoot ltoes
    rhipjoint rfemur
    rfemur rtibia
    rtibia rfoot
    rfoot rtoes
    lowerback upperback
    upperback thorax
    thorax lowerneck lclavicle rclavicle
    lowerneck upperneck
    upperneck head
    lclavicle lhumerus
    lhumerus lradius
    lradius lwrist
    lwrist lhand lthumb
    lhand lfingers
    rclavicle rhumerus
    rhumerus rradius
    rradius rwrist
    rwrist rhand rthumb
    rhand rfingers
  end

#!OML:ASF H:\Dans Jumps\Project 1\Capture day 1\Session 1\subject.ASF
:FULLY-SPECIFIED
:DEGREES
61
root 0.325729 17.5989 -13.8345 7.63651 -0.225405 -1.28136
lowerback -2.74831 -0.330054 -0.0647224
upperback 2.60838 -0.497884 1.55303
thorax 4.24449 -0.275297 1.60702
lowerneck -14.0015 0.197047 -1.83965
upperneck 29.0115 0.460256 1.03943
head 11.7984 0.134881 0.768969
rclavicle -1.05853e-014 1.70955e-014
rhumerus -19.8636 -17.7984 -85.0519
rradius 19.9417
rwrist 38.9281
rhand -18.9928 -26.3002
rfingers 7.12502
rthumb 7.31213 -56.1539
lclavicle -1.05853e-014 1.70955e-014
lhumerus -20.1589 -8.42438 95.8944
lradius 14.2904
lwrist -3.97508
lhand -24.128 -3.354
lfingers 7.12502
lthumb 2.35374 26.6128
rfemur -12.619 -2.74464 19.2934
rtibia 19.6652
rfoot -13.696 -2.72328
rtoes 11.2328
lfemur -10.7786 7.12095 -17.9161
ltibia 16.6791
lfoot -10.3102 7.15738
ltoes -3.07117
62
root 0.323886 17.5984 -13.8319 7.63084 -0.211419 -1.28467
lowerback -2.76788 -0.32407 -0.0507046
upperback 2.61399 -0.490624 1.54878
thorax 4.26104 -0.271267 1.59516
lowerneck -13.9963 0.193324 -1.84159
upperneck 29.0364 0.457211 1.03395
head 11.8072 0.132526 0.767026
rclavicle -3.47873e-016 -1.19271e-015
rhumerus -20.0481 -18.1586 -84.8828
rradius 19.8171
rwrist 39.2277
rhand -18.9522 -26.3088
rfingers 7.12502
rthumb 7.35126 -56.1611
lclavicle -3.47873e-016 -1.19271e-015
lhumerus -20.3362 -8.24268 95.8101
lradius 14.2753
lwrist -3.92692
lhand -24.3358 -3.35978
lfingers 7.12502
lthumb 2.15305 26.6091
rfemur -12.6038 -2.74684 19.3041
rtibia 19.6713
rfoot -13.705 -2.73899
rtoes 11.1584
lfemur -10.7712 7.10939 -17.9032
ltibia 16.6914
lfoot -10.3179 7.16076
ltoes -3.10279
63
root 0.321974 17.5978 -13.8294 7.62228 -0.198323 -1.28605
lowerback -2.78526 -0.317056 -0.0402165
upperback 2.62158 -0.481821 1.54417
thorax 4.2784 -0.266579 1.58502
lowerneck -13.9943 0.189083 -1.8432
upperneck 29.0594 0.452849 1.03032
head 11.8159 0.129871 0.765529
rclavicle -6.90777e-015 9.93923e-016
rhumerus -20.2306 -18.4669 -84.7221
rradius 19.716
rwrist 39.4672
rhand -18.9104 -26.3086
rfingers 7.12502
rthumb 7.39161 -56.1594
lclavicle -6.90777e-015 9.93923e-016
lhumerus -20.4928 -8.05183 95.7148
lradius 14.2946
lwrist -3.67574
lhand -24.563 -3.3481
lfingers 7.12502
lthumb 1.93365 26.6229
rfemur -12.5869 -2.7459 19.3125
rtibia 19.6788
rfoot -13.7168 -2.75524
rtoes 11.1124
lfemur -10.7606 7.09939 -17.8919
ltibia 16.7027
lfoot -10.3258 7.1626
ltoes -3.13394
64
root 0.320052 17.5972 -13.8271 7.61161 -0.185609 -1.28733
lowerback -2.80057 -0.309015 -0.0301799
upperback 2.63058 -0.47161 1.53907
thorax 4.29602 -0.261202 1.57474
lowerneck -13.9954 0.184255 -1.84335
upperneck 29.0799 0.44626 1.03015
head 11.8243 0.12684 0.764747
rclavicle -6.06293e-015 5.1684e-015
rhumerus -20.409 -18.7243 -84.5725
rradius 19.6385
rwrist 39.644
rhand -18.8664 -26.3065
rfingers 7.12502
rthumb 7.43414 -56.1559
lclavicle -6.06293e-015 5.1684e-015
lhumerus -20.6306 -7.86523 95.6122
lradius 14.3544
lwrist -3.20526
lhand -24.7926 -3.34505
lfingers 7.12502
lthumb 1.71183 26.6278
rfemur -12.5687 -2.74279 19.3204
rtibia 19.687
rfoot -13.7275 -2.77348
rtoes 11.0608
lfemur -10.7473 7.08828 -17.8804
ltibia 16.7136
lfoot -10.3329 7.16589
ltoes -3.16271
65
root 0.318132 17.5966 -13.8249 7.59806 -0.170365 -1.28559
lowerback -2.81216 -0.301074 -0.0222849
upperback 2.64066 -0.461359 1.53258
thorax 4.31265 -0.255846 1.56425
lowerneck -14.0022 0.179192 -1.84178
upperneck 29.0998 0.438235 1.03246
head 11.8337 0.123682 0.764413
rclavicle 3.67752e-015 2.78299e-015
rhumerus -20.5829 -18.9348 -84.4322
rradius 19.5813
rwrist 39.7688
rhand -18.7999 -26.3062
rfingers 7.12502
rthumb 7.49827 -56.1533
lclavicle 3.67752e-015 2.78299e-015
lhumerus -20.7508 -7.69379 95.5056
lradius 14.456
lwrist -2.53913
lhand -25.0578 -3.44892
lfingers 7.12502
lthumb 1.45578 26.5259
rfemur -12.5472 -2.7406 19.3247
rtibia 19.6949
rfoot -13.7418 -2.7906
rtoes 11.0467
lfemur -10.7318 7.07548 -17.8717
ltibia 16.7249
lfoot -10.341 7.16752
ltoes -3.18634
66
root 0.31628 17.596 -13.8229 7.58407 -0.155132 -1.28373
lowerback -2.82137 -0.291779 -0.0132627
upperback 2.65019 -0.449288 1.52512
thorax 4.32731 -0.249522 1.55225
lowerneck -14.0125 0.173182 -1.83789
upperneck 29.1192 0.427759 1.03652
head 11.8436 0.119919 0.763997
rclavicle -2.08724e-015 -3.97569e-016
rhumerus -20.7554 -19.1046 -84.2999
rradius 19.5465
rwrist 39.8565
rhand -18.7125 -26.3128
rfingers 7.12502
rthumb 7.58262 -56.1569
lclavicle -2.08724e-015 -3.97569e-016
lhumerus -20.8563 -7.53501 95.3943
lradius 14.5932
lwrist -1.77153
lhand -25.3806 -3.72874
lfingers 7.12502
lthumb 1.14396 26.2479
rfemur -12.526 -2.73853 19.3283
rtibia 19.7024
rfoot -13.755 -2.80727
rtoes 11.0367
lfemur -10.7167 7.06164 -17.8634
ltibia 16.737
lfoot -10.349 7.17019
ltoes -3.20886
67
root 0.314463 17.5953 -13.8211 7.56986 -0.138021 -1.28321
lowerback -2.82883 -0.281986 -0.00158175
upperback 2.65977 -0.43665 1.5173
thorax 4.34098 -0.242822 1.53843
lowerneck -14.0275 0.167263 -1.83225
upperneck 29.137 0.416196 1.04336
head 11.8539 0.116237 0.764171
rclavicle -9.93923e-017 -9.93923e-016
rhumerus -20.9214 -19.235 -84.1777
rradius 19.5299
rwrist 39.9067
rhand -18.6168 -26.3448
rfingers 7.12502
rthumb 7.67503 -56.1855
lclavicle -9.93923e-017 -9.93923e-016
lhumerus -20.9474 -7.39197 95.2773
lradius 14.7567
lwrist -1.01176
lhand -25.7083 -4.15445
lfingers 7.12502
lthumb 0.827448 25.8237
rfemur -12.5044 -2.73726 19.3335
rtibia 19.7092
rfoot -13.7676 -2.82478
rtoes 11.0222
lfemur -10.7028 7.04706 -17.8537
ltibia 16.7501
lfoot -10.3577 7.1717
ltoes -3.23083
68
root 0.312663 17.5947 -13.8197 7.55656 -0.119854 -1.28105
lowerback -2.83275 -0.271244 0.00942875
upperback 2.66649 -0.422604 1.50848
thorax 4.34964 -0.235395 1.52406
lowerneck -14.0334 0.160036 -1.83144
upperneck 29.1487 0.402124 1.05601
head 11.8599 0.11168 0.766909
rclavicle -1.09332e-015 1.80894e-014
rhumerus -21.0898 -19.3196 -84.0645
rradius 19.5378
rwrist 39.9184
rhand -18.5454 -26.376
rfingers 7.12502
rthumb 7.74398 -56.2142
lclavicle -1.09332e-015 1.80894e-014
lhumerus -21.0272 -7.25323 95.1514
lradius 14.9268
lwrist -0.392421
lhand -26.0153 -4.6956
lfingers 7.12502
lthumb 0.530937 25.2835
rfemur -12.4848 -2.73661 19.337
rtibia 19.7157
rfoot -13.7791 -2.84249
rtoes 11.0058
lfemur -10.6923 7.03312 -17.8461
ltibia 16.7642
lfoot -10.366 7.17197
ltoes -3.25557
69
root 0.310879 17.5941 -13.8184 7.54522 -0.101496 -1.27941
lowerback -2.83806 -0.258733 0.0208552
upperback 2.67175 -0.406206 1.49967
thorax 4.35751 -0.226777 1.50961
lowerneck -14.034 0.151915 -1.83089
upperneck 29.1552 0.386105 1.07078
head 11.8629 0.106534 0.770146
rclavicle 1.83876e-015 -1.25234e-014
rhumerus -21.258 -19.3553 -83.962
rradius 19.569
rwrist 39.8799
rhand -18.5162 -26.4108
rfingers 7.12502
rthumb 7.77209 -56.248
lclavicle 1.83876e-015 -1.25234e-014
lhumerus -21.09 -7.10769 95.0139
lradius 15.0847
lwrist -0.0109272
lhand -26.2637 -5.22172
lfingers 7.12502
lthumb 0.29105 24.7578
rfemur -12.4678 -2.73602 19.3412
rtibia 19.7218
rfoot -13.7904 -2.8607
rtoes 10.9884
lfemur -10.6853 7.02133 -17.8385
ltibia 16.7788
lfoot -10.3748 7.16989
ltoes -3.27675
70
root 0.309081 17.5935 -13.8174 7.53474 -0.0816894 -1.27639
lowerback -2.84319 -0.245861 0.0303802
upperback 2.67561 -0.389215 1.49085
thorax 4.36383 -0.217911 1.49625
lowerneck -14.028 0.142817 -1.83314
upperneck 29.1567 0.368361 1.0887
head 11.8624 0.100738 0.774735
rclavicle -4.82053e-015 1.13307e-014
rhumerus -21.4229 -19.3636 -83.8653
rradius 19.6149
rwrist 39.8182
rhand -18.5231 -26.4309
rfingers 7.12502
rthumb 7.76543 -56.2683
lclavicle -4.82053e-015 1.13307e-014
lhumerus -21.137 -6.98171 94.8719
lradius 15.2184
lwrist 0.124251
lhand -26.4199 -5.64774
lfingers 7.12502
lthumb 0.140193 24.332
rfemur -12.4527 -2.73879 19.3443
rtibia 19.7282
rfoot -13.8011 -2.87864
rtoes 10.9656
lfemur -10.6802 7.01153 -17.8326
ltibia 16.7929
lfoot -10.382 7.16365
ltoes -3.29463
71
root 0.307269 17.5931 -13.8166 7.5251 -0.0607746 -1.27326
lowerback -2.84989 -0.232359 0.03862
upperback 2.67849 -0.371349 1.48277
thorax 4.37003 -0.20866 1.48446
lowerneck -14.0157 0.133108 -1.83603
upperneck 29.1548 0.350017 1.10594
head 11.8594 0.094539 0.779043
rclavicle -1.14301e-015 7.35503e-015
rhumerus -21.5834 -19.3481 -83.7731
rradius 19.6709
rwrist 39.7354
rhand -18.563 -26.4365
rfingers 7.12502
rthumb 7.72695 -56.2754
lclavicle -1.14301e-015 7.35503e-015
lhumerus -21.1653 -6.86214 94.7242
lradius 15.323
lwrist 0.0234347
lhand -26.4854 -5.91264
lfingers 7.12502
lthumb 0.076966 24.0671
rfemur -12.4387 -2.74223 19.3477
rtibia 19.7342
rfoot -13.812 -2.89786
rtoes 10.9396
lfemur -10.6766 7.00465 -17.827
ltibia 16.8064
lfoot -10.3894 7.15271
ltoes -3.30656
72
root 0.305481 17.5926 -13.8158 7.51621 -0.0400048 -1.27096
lowerback -2.8591 -0.217966 0.0464099
upperback 2.68131 -0.352347 1.47601
thorax 4.3776 -0.198884 1.47434
lowerneck -14.0038 0.121858 -1.83936
upperneck 29.1536 0.329913 1.12214
head 11.8567 0.0873726 0.782802
rclavicle -1.39149e-015 -3.77691e-015
rhumerus -21.7353 -19.3099 -83.687
rradius 19.7348
rwrist 39.6306
rhand -18.606 -26.4469
rfingers 7.12502
rthumb 7.68544 -56.2872
lclavicle -1.39149e-015 -3.77691e-015
lhumerus -21.1732 -6.76192 94.5769
lradius 15.3994
lwrist -0.239659
lhand -26.3461 -5.82124
lfingers 7.12502
lthumb 0.211488 24.1584
rfemur -12.4258 -2.74728 19.352
rtibia 19.7399
rfoot -13.8225 -2.91521
rtoes 10.9129
lfemur -10.6736 6.997 -17.8208
ltibia 16.8187
lfoot -10.3959 7.14212
ltoes -3.31219
73
root 0.303712 17.5922 -13.8153 7.50812 -0.017107 -1.26938
lowerback -2.87033 -0.204178 0.0536915
upperback 2.68377 -0.33422 1.4712
thorax 4.38598 -0.189593 1.46648
lowerneck -13.9933 0.110423 -1.84488
upperneck 29.1556 0.310438 1.13746
head 11.8557 0.0801215 0.786732
rclavicle 2.28602e-015 -3.77691e-015
rhumerus -21.8763 -19.2551 -83.6042
rradius 19.8023
rwrist 39.5165
rhand -18.6329 -26.4643
rfingers 7.12502
rthumb 7.65952 -56.3055
lclavicle 2.28602e-015 -3.77691e-015
lhumerus -21.1586 -6.67645 94.4319
lradius 15.4506
lwrist -0.571402
lhand -26.0722 -5.5007
lfingers 7.12502
lthumb 0.476026 24.4785
rfemur -12.4134 -2.75554 19.3572
rtibia 19.7449
rfoot -13.8328 -2.93113
rtoes 10.8895
lfemur -10.6719 6.98523 -17.8139
ltibia 16.83
lfoot -10.4023 7.13247
ltoes -3.31077
